<svg width="250" height="350" viewBox="0 0 250 350" fill="none" xmlns="http://www.w3.org/2000/svg">
<rect x="0.5" y="0.5" width="249" height="349" rx="34.5" fill="white"/>
<rect x="0.5" y="0.5" width="249" height="349" rx="34.5" stroke="black"/>
<rect x="0.5" y="0.5" width="249" height="349" rx="34.5" stroke="black" stroke-opacity="0.2"/>
<path d="M24.58 35.0049C30.3802 35.0049 35.5491 37.8903 41.1578 38.99C47.7077 40.2743 48.0412 42.8596 48.9686 49.3512C49.9726 56.3794 51.7156 60.2245 43.2301 62.5816C40.7048 63.2831 35.946 64.3416 33.905 65.9291C29.6576 69.2326 16.1336 72.3052 28.565 72.3052C40.2835 72.3052 51.6893 73.7398 63.3148 73.7398" stroke="black" stroke-width="3" stroke-linecap="round"/>
<path d="M213.95 327.668C211.376 327.954 207.698 329.741 205.343 330.856C200.374 333.21 196.436 328.915 191.793 327.589C183.941 325.345 192.246 312.788 195.619 310.453C197.885 308.884 212.878 303.672 211.001 303.359C202.451 301.934 192.451 298.976 183.823 298.976" stroke="black" stroke-width="3" stroke-linecap="round"/>
</svg>
