<svg width="250" height="350" viewBox="0 0 250 350" fill="none" xmlns="http://www.w3.org/2000/svg">
<rect x="0.5" y="0.5" width="249" height="349" rx="34.5" fill="white"/>
<rect x="0.5" y="0.5" width="249" height="349" rx="34.5" stroke="black"/>
<rect x="0.5" y="0.5" width="249" height="349" rx="34.5" stroke="black" stroke-opacity="0.2"/>
<path d="M14.42 24.9626C23.3047 24.9626 33.0702 18.7389 33.0702 30.7011C33.0702 36.8079 32.5573 39.7445 26.6941 42.8157C24.4069 44.0137 15.0593 48.1652 21.2744 50.467C28.5444 53.1596 38.2639 51.9126 38.8087 62.2628C39.2276 70.2222 26.4741 71.2994 21.5932 73.7398" stroke="black" stroke-width="3" stroke-linecap="round"/>
<path d="M222.441 321.93C215.989 327.209 182.687 335.677 179.721 324.799C176.995 314.803 193.069 310.915 200.921 310.453C204.97 310.215 193.945 307.303 193.429 306.946C190.895 305.191 183.957 297.623 183.706 294.353C183.423 290.684 180.41 286.407 186.575 286.064C194.804 285.607 202.847 287.499 210.964 287.499" stroke="black" stroke-width="3" stroke-linecap="round"/>
</svg>
