<svg width="250" height="350" viewBox="0 0 250 350" fill="none" xmlns="http://www.w3.org/2000/svg">
<rect x="0.5" y="0.5" width="249" height="349" rx="34.5" fill="white"/>
<rect x="0.5" y="0.5" width="249" height="349" rx="34.5" stroke="black"/>
<rect x="0.5" y="0.5" width="249" height="349" rx="34.5" stroke="black" stroke-opacity="0.2"/>
<path d="M54.086 20.1804C44.7344 21.1156 36.321 20.1804 26.9079 20.1804C22.8366 20.1804 18.6997 30.6141 18.1407 34.5266C17.1199 41.6724 18.1694 42.2277 23.9589 47.4383C27.6717 50.7797 31.6309 51.4932 29.3786 57.7994C27.5011 63.0566 18.4547 64.5757 13.9166 66.0884" stroke="black" stroke-width="3" stroke-linecap="round"/>
<path d="M183.202 327.19C183.452 325.194 197.654 327.19 200.418 327.19C203.324 327.19 217.875 325.908 218.908 322.806C220.281 318.688 219.899 309.21 218.988 305.113C218.547 303.128 207.822 304.236 205.997 304.236C202.071 304.236 196.244 305.499 194.36 301.048C193.288 298.512 187.817 294.065 189.26 291.324C194.897 280.613 213.503 284.151 223.372 284.151" stroke="black" stroke-width="3" stroke-linecap="round"/>
</svg>
