<svg width="250" height="350" viewBox="0 0 250 350" fill="none" xmlns="http://www.w3.org/2000/svg">
<rect x="0.5" y="0.5" width="249" height="349" rx="34.5" fill="white"/>
<rect x="0.5" y="0.5" width="249" height="349" rx="34.5" stroke="black"/>
<rect x="0.5" y="0.5" width="249" height="349" rx="34.5" stroke="black" stroke-opacity="0.2"/>
<path d="M33.1877 24.4843C32.0457 28.2909 26.6334 32.4868 24.6596 36.5989C22.1866 41.7512 23.0332 48.366 23.1453 53.9738C23.2949 61.4532 27.7577 70.0623 35.3396 71.7472C40.9201 72.9873 47.1166 65.8305 42.3533 61.0672C34.5228 53.2367 26.7177 66.4541 21.7107 68.9576" stroke="black" stroke-width="3" stroke-linecap="round"/>
<path d="M208.212 332.929C208.821 327.449 215.279 322.094 218.254 317.466C220.313 314.263 221.123 308.833 221.123 305.033C221.123 296.306 219.273 293.85 211.081 290.209C206.068 287.981 196.735 293.806 196.735 299.215C196.735 306.262 213.149 312.378 215.385 305.671" stroke="black" stroke-width="3" stroke-linecap="round"/>
</svg>
