<svg width="250" height="350" viewBox="0 0 250 350" fill="none" xmlns="http://www.w3.org/2000/svg">
<rect x="0.5" y="0.5" width="249" height="349" rx="34.5" fill="white"/>
<rect x="0.5" y="0.5" width="249" height="349" rx="34.5" stroke="black"/>
<rect x="0.5" y="0.5" width="249" height="349" rx="34.5" stroke="black" stroke-opacity="0.2"/>
<path d="M39.815 31.1791C38.4789 25.167 27.6831 26.8752 23.3965 26.8752C17.7336 26.8752 19.6055 33.9875 19.7302 38.3522C19.9885 47.39 42.4734 69.0155 29.135 75.3337C23.3392 78.079 5.16908 75.8228 10.0067 65.6101C13.482 58.2733 22.6338 52.8446 26.9034 45.5254C29.4917 41.0883 31.3055 38.2867 35.5111 35.483" stroke="black" stroke-width="3" stroke-linecap="round"/>
<path d="M213.405 320.973C212.747 326.234 187.766 321.175 193.639 312.365C196.279 308.405 206.871 306.56 211.173 303.04C215.884 299.186 217.708 296.31 217.708 290.208C217.708 281.746 202.123 281.682 200.573 290.208C198.261 302.921 210.535 309.7 210.535 320.973" stroke="black" stroke-width="3" stroke-linecap="round"/>
</svg>
