<svg width="250" height="350" viewBox="0 0 250 350" fill="none" xmlns="http://www.w3.org/2000/svg">
<rect x="0.5" y="0.5" width="249" height="349" rx="34.5" fill="white"/>
<rect x="0.5" y="0.5" width="249" height="349" rx="34.5" stroke="black"/>
<rect x="0.5" y="0.5" width="249" height="349" rx="34.5" stroke="black" stroke-opacity="0.2"/>
<path d="M29.7726 26.3972C29.3538 35.6106 28.1589 45.1683 26.8236 54.2927C25.5674 62.8767 21.0198 70.6901 19.8099 79.1595C19.2001 83.4282 19.5611 70.4312 20.6069 66.2479C22.9568 56.8484 27.8819 48.5817 30.4899 39.3088C31.413 36.0266 32.622 27.42 35.8299 25.2814C36.9089 24.5621 38.3552 42.192 38.3803 43.7721C38.4954 51.0212 39.2213 59.5389 40.9307 66.5667C41.8221 70.231 43.4492 71.875 41.2496 75.1744" stroke="black" stroke-width="3" stroke-linecap="round"/>
<path d="M26.9033 53.6551C32.1996 54.2436 37.0981 55.0897 42.6842 55.0897" stroke="black" stroke-width="3" stroke-linecap="round"/>
<path d="M229.185 290.368C224.707 298.876 220.769 307.62 216.274 316.112C214.59 319.291 211.567 330.229 207.666 324.48C203.474 318.302 201.374 311.826 199.696 304.635C198.281 298.569 194.754 293.646 194.754 287.499" stroke="black" stroke-width="3" stroke-linecap="round"/>
<path d="M201.927 306.149C212.039 309.399 222.012 307.942 232.055 310.453" stroke="black" stroke-width="3" stroke-linecap="round"/>
</svg>
