<svg width="250" height="350" viewBox="0 0 250 350" fill="none" xmlns="http://www.w3.org/2000/svg">
<rect x="0.5" y="0.5" width="249" height="349" rx="34.5" fill="white"/>
<rect x="0.5" y="0.5" width="249" height="349" rx="34.5" stroke="black"/>
<rect x="0.5" y="0.5" width="249" height="349" rx="34.5" stroke="black" stroke-opacity="0.2"/>
<path d="M25.8219 24.006C19.3862 25.6149 21.5181 50.1207 21.5181 54.8504C21.5181 65.0843 40.8365 67.6564 47.8992 64.8928C57.9611 60.9555 49.4033 41.7322 44.1532 36.5988C38.1154 30.6951 27.2193 26.8752 18.6488 26.8752" stroke="black" stroke-width="3" stroke-linecap="round"/>
<path d="M37.299 49.8292C44.361 54.8315 50.0297 61.7571 55.3115 68.4793C57.1925 70.8734 59.9255 71.3538 61.6876 73.899C63.8634 77.0419 65.4519 79.6865 68.8607 81.391" stroke="black" stroke-width="3" stroke-linecap="round"/>
<path d="M204.797 306.976C196.801 306.976 193.001 322.078 195.073 328.814C197.584 336.973 210.372 338.334 216.991 334.154C225.876 328.542 226.755 321.746 221.375 313.431C216.107 305.29 211.645 304.106 201.927 304.106" stroke="black" stroke-width="3" stroke-linecap="round"/>
<path d="M210.535 317.018C200.361 317.018 191.658 303.652 187.581 295.499" stroke="black" stroke-width="3" stroke-linecap="round"/>
</svg>
